<svg width="211" height="184" viewBox="0 0 211 184" fill="none" xmlns="http://www.w3.org/2000/svg">
<path d="M45.2518 98.89C71.2618 98.89 89.3668 80.02 89.3668 49.675C89.3668 19.33 71.2618 0.459999 45.2518 0.459999C19.2418 0.459999 0.881826 19.585 0.881826 49.675C0.881826 79.765 19.2418 98.89 45.2518 98.89ZM29.6968 181H60.0418L181.932 2.49999H151.587L29.6968 181ZM45.2518 77.98C34.2868 77.98 26.6368 68.545 26.6368 49.675C26.6368 30.805 34.2868 21.37 45.2518 21.37C56.4718 21.37 63.8668 30.55 63.8668 49.675C63.8668 68.8 56.4718 77.98 45.2518 77.98ZM166.377 183.04C192.387 183.04 210.747 163.915 210.747 133.825C210.747 103.735 192.387 84.61 166.377 84.61C140.622 84.61 122.262 103.735 122.262 133.825C122.262 163.915 140.622 183.04 166.377 183.04ZM166.377 162.13C155.412 162.13 147.762 152.95 147.762 133.825C147.762 114.7 155.412 105.52 166.377 105.52C177.597 105.52 184.992 114.955 184.992 133.825C184.992 152.695 177.597 162.13 166.377 162.13Z" fill="url(#paint0_linear_1_70)"/>
<defs>
<linearGradient id="paint0_linear_1_70" x1="175.997" y1="137.5" x2="57.4968" y2="4.99998" gradientUnits="userSpaceOnUse">
<stop stop-color="#17E5CE"/>
<stop offset="1" stop-color="#4FFFCA"/>
</linearGradient>
</defs>
</svg>
