<svg width="31" height="31" viewBox="0 0 31 31" fill="none" xmlns="http://www.w3.org/2000/svg">
<g clip-path="url(#clip0_1_193)">
<path d="M15.1121 -0.0239258C6.77837 -0.0239258 0.0378864 6.71656 0.0378864 15.0503C-0.0233908 23.4452 6.77837 30.1857 15.1121 30.1857C23.4458 30.1857 30.1863 23.4452 30.1863 15.1115C30.1863 6.77784 23.4458 -0.0239258 15.1121 -0.0239258ZM19.0951 15.0503H16.4602C16.4602 19.2171 16.4602 24.3644 16.4602 24.3644H12.5997C12.5997 24.3644 12.5997 19.2784 12.5997 15.0503H10.7614V11.7413H12.5997V9.59659C12.5997 8.06466 13.335 5.67485 16.5214 5.67485H19.4015V8.86126C19.4015 8.86126 17.6857 8.86126 17.318 8.86126C16.9504 8.86126 16.5214 9.04509 16.5214 9.78042V11.7413H19.4627L19.0951 15.0503Z" fill="#5E5E5E"/>
</g>
<defs>
<clipPath id="clip0_1_193">
<rect width="30.1858" height="30.1707" fill="white"/>
</clipPath>
</defs>
</svg>
