<svg width="95" height="95" viewBox="0 0 95 95" fill="none" xmlns="http://www.w3.org/2000/svg">
<g style="mix-blend-mode:screen" clip-path="url(#clip0_1_273)" filter="url(#filter0_d_1_273)">
<path d="M82.9 0.430054H38.97C35.07 0.430054 31.74 3.57005 31.74 7.56005V15.6901C29.86 15.1201 27.84 14.6901 25.96 14.6901C15.84 14.6901 7.60999 22.8201 7.60999 32.8001C7.60999 39.5001 11.37 45.6301 17.29 48.7701H9.78V57.4701H4.87V68.59H9.78V75.4301H4.87V86.5501H82.76C86.66 86.5501 89.99 83.41 89.99 79.4201V7.56005C89.98 3.57005 86.8 0.430054 82.9 0.430054ZM42 68.59V75.4301H11.95V68.59H42ZM7.02999 66.4501V59.6101H37.09V66.4501H7.02999ZM87.81 73.7201V79.2801C87.81 81.9901 85.5 84.2701 82.75 84.2701H39.26V77.4301H44.17V73.7201H87.81ZM39.26 66.4501V59.6101H44.17V48.4801H34.49C40.41 45.3401 44.17 39.2101 44.17 32.5101C44.17 25.6701 40.12 19.2501 33.91 16.2601V14.6901H87.81V71.4401H44.17V66.3101H39.26V66.4501ZM25.96 48.6301C17 48.6301 9.78 41.5001 9.78 32.6601C9.78 23.8201 17.01 16.6901 25.96 16.6901C34.92 16.6901 42.14 23.8201 42.14 32.6601C42.15 41.5001 34.78 48.6301 25.96 48.6301ZM42 50.7701V57.4701H11.95V50.6301H42V50.7701ZM37.09 77.5701V84.4101H7.02999V77.5701H37.09ZM87.81 7.56005V12.8401H33.91V7.56005C33.91 4.85005 36.22 2.57005 38.97 2.57005H82.9C85.64 2.57005 87.81 4.85005 87.81 7.56005Z" fill="#4FFFCA"/>
<path d="M82.75 86.99H4.42999V75H9.33999V69.02H4.42999V57.03H9.33999V48.33H15.69C10.4 44.93 7.17999 39.11 7.17999 32.8C7.17999 22.58 15.61 14.26 25.97 14.26C27.52 14.26 29.32 14.55 31.32 15.11V7.56C31.32 3.39 34.76 0 38.98 0H82.9C87.04 0 90.41 3.39 90.41 7.56V79.42C90.41 83.6 86.98 86.99 82.75 86.99ZM5.29999 86.12H82.75C86.49 86.12 89.54 83.12 89.54 79.42V7.56C89.54 3.87 86.56 0.86 82.89 0.86H38.97C35.23 0.86 32.18 3.86 32.18 7.56V16.27L31.62 16.1C29.48 15.45 27.58 15.12 25.97 15.12C16.09 15.12 8.04999 23.05 8.04999 32.79C8.04999 39.32 11.67 45.29 17.5 48.38L19.04 49.2H10.21V57.9H5.29999V68.15H10.21V75.86H5.29999V86.12ZM37.52 84.85H6.59999V77.14H37.52V84.85ZM7.46999 83.98H36.66V78H7.46999V83.98ZM82.75 84.71H38.82V77H43.73V73.29H88.24V79.28C88.24 82.22 85.73 84.71 82.75 84.71ZM39.69 83.84H82.75C85.26 83.84 87.37 81.75 87.37 79.28V74.15H44.6V77.86H39.69V83.84ZM42.44 75.87H11.51V68.16H42.43V75.87H42.44ZM12.38 75H41.57V69.02H12.38V75ZM88.24 71.87H43.74V66.74H39.26V66.45H38.83V59.17H43.74V48.92H32.74L34.28 48.1C40.11 45.01 43.73 39.04 43.73 32.51C43.73 25.81 39.8 19.58 33.72 16.65L33.47 16.53V14.26H88.24V71.87ZM44.6 71.01H87.37V15.13H34.35V15.99C40.59 19.11 44.61 25.57 44.61 32.51C44.61 38.82 41.38 44.64 36.09 48.05H44.61V60.04H39.7V65.87H44.61V71.01H44.6ZM37.52 66.88H6.59999V59.17H37.52V66.88ZM7.46999 66.02H36.66V60.04H7.46999V66.02ZM42.44 57.9H11.51V50.19H42.43V57.9H42.44ZM12.38 57.03H41.57V51.05H12.38V57.03ZM25.96 49.06C16.8 49.06 9.33999 41.7 9.33999 32.66C9.33999 23.62 16.79 16.26 25.96 16.26C35.13 16.26 42.58 23.62 42.58 32.66C42.58 41.7 35.13 49.06 25.96 49.06ZM25.96 17.12C17.27 17.12 10.21 24.09 10.21 32.66C10.21 41.23 17.28 48.2 25.96 48.2C34.64 48.2 41.71 41.23 41.71 32.66C41.71 24.09 34.65 17.12 25.96 17.12ZM88.24 13.27H33.48V7.56C33.48 4.62 35.99 2.14 38.97 2.14H82.9C85.85 2.14 88.25 4.57 88.25 7.56V13.27H88.24ZM34.35 12.41H87.38V7.56C87.38 5.05 85.37 3 82.9 3H38.97C36.46 3 34.35 5.09 34.35 7.56V12.41Z" fill="#4FFFCA"/>
<path d="M50.53 67.5901H58.91V48.2001H50.38V67.5901H50.53ZM56.74 50.3401V65.4501H52.55V50.3401H56.74Z" fill="#4FFFCA"/>
<path d="M59.34 68.02H49.95V47.77H59.34V68.02ZM50.82 67.16H58.48V48.63H50.82V67.16ZM57.18 65.89H52.12V49.9H57.18V65.89ZM52.99 65.02H56.31V50.77H52.99V65.02Z" fill="#4FFFCA"/>
<path d="M61.8 67.5899H70.33V35.9399H61.8V67.5899ZM68.16 38.0799V65.3099H63.97V38.0799H68.16Z" fill="#4FFFCA"/>
<path d="M70.76 68.02H61.37V35.5H70.76V68.02ZM62.23 67.16H69.89V36.37H62.23V67.16ZM68.59 65.74H63.53V37.64H68.59V65.74ZM64.4 64.88H67.72V38.51H64.4V64.88Z" fill="#4FFFCA"/>
<path d="M81.6 22.11H73.07V67.59H81.6V22.11ZM75.38 65.45V24.25H79.57V65.46H75.38V65.45Z" fill="#4FFFCA"/>
<path d="M82.03 68.02H72.64V21.67H82.03V68.02ZM73.5 67.16H81.16V22.54H73.5V67.16ZM80.01 65.89H74.95V23.81H80.01V65.89ZM75.82 65.02H79.14V24.68H75.82V65.02Z" fill="#4FFFCA"/>
<path d="M53.42 27.0999L58.19 32.5199L69.03 21.9699V25.6799H71.2V18.3999H63.54V20.5399H67.3L58.34 29.3799L53.57 23.9599L46.34 31.2299L47.78 32.6599L53.42 27.0999Z" fill="#4FFFCA"/>
<path d="M47.78 33.27L45.72 31.24L53.58 23.33L58.35 28.75L66.23 20.97H63.1V17.96H71.63V26.1H68.6V22.99L58.16 33.14L53.39 27.72L47.78 33.27ZM46.95 31.23L47.78 32.05L53.44 26.47L58.21 31.89L69.46 20.94V25.24H70.76V18.83H63.97V20.1H68.35L58.31 30L53.54 24.59L46.95 31.23Z" fill="#4FFFCA"/>
<path d="M61.8 6.28003H58.48V9.56003H61.8V6.28003Z" fill="#4FFFCA"/>
<path d="M62.23 9.98998H58.04V5.84998H62.23V9.98998ZM58.91 9.12998H61.37V6.70998H58.91V9.12998Z" fill="#4FFFCA"/>
<path d="M5.88 9.26997C8.34 9.26997 10.22 11.12 10.36 13.4H10.07L10.36 13.69C10.36 13.69 10.36 13.69 10.36 13.83V14.54L11.52 15.54L12.39 14.68L12.68 14.25V13.68C12.68 11.26 14.7 9.25997 17.16 9.25997H17.88L19.04 8.25997L18.32 7.39997L17.89 6.96997H17.31H17.17C14.71 6.96997 12.83 5.11997 12.69 2.83997H12.53C12.53 2.69997 12.53 2.69997 12.53 2.54997L12.67 1.83997L11.51 0.719971L10.65 1.56997L10.36 1.99997V2.56997V2.70997L10.07 2.99997H10.36C10.21 5.27997 8.19 7.13997 5.88 7.13997C5.88 7.13997 5.74 7.13997 5.59 7.13997H5.16L4 8.12997L4.87 8.98997L5.3 9.26997H5.88ZM11.51 6.13997C11.94 6.99997 12.67 7.56997 13.53 8.13997C12.66 8.70997 11.94 9.27997 11.51 10.14C10.93 9.27997 10.35 8.70997 9.49 8.13997C10.36 7.70997 10.94 6.98997 11.51 6.13997Z" fill="#4FFFCA"/>
<path d="M32.9 32.37C33.33 32.08 33.77 31.66 34.06 31.23C34.49 30.52 34.78 29.66 34.78 28.66C34.78 27.23 34.2 25.95 33.05 25.24C31.89 24.38 30.45 24.1 28.43 24.1H28.29V21.39H26.12V24.1H25.69V21.39H23.52V24.1H18.9V26.24H20.78V39.36H18.9V41.5H23.52V44.07H25.69V41.5H26.12V44.07H28.29V41.5H29C31.17 41.5 32.76 41.07 33.91 40.22C35.07 39.36 35.64 38.22 35.64 36.66C35.64 35.52 35.35 34.52 34.63 33.67C34.35 33.09 33.62 32.66 32.9 32.37ZM33.19 36.51C33.19 37.51 32.9 38.22 32.18 38.65C31.46 39.08 30.45 39.36 29 39.36H23.36V33.8H29C31.89 33.66 33.19 34.65 33.19 36.51ZM23.36 31.52V26.24H28.42C29.72 26.24 30.73 26.53 31.31 26.95C31.89 27.38 32.32 28.09 32.32 28.95C32.32 29.81 32.03 30.38 31.45 30.8C30.73 31.23 29.72 31.51 28.56 31.51H23.36V31.52Z" fill="#4FFFCA"/>
</g>
<defs>
<filter id="filter0_d_1_273" x="0" y="0" width="94.41" height="94.99" filterUnits="userSpaceOnUse" color-interpolation-filters="sRGB">
<feFlood flood-opacity="0" result="BackgroundImageFix"/>
<feColorMatrix in="SourceAlpha" type="matrix" values="0 0 0 0 0 0 0 0 0 0 0 0 0 0 0 0 0 0 127 0" result="hardAlpha"/>
<feOffset dy="4"/>
<feGaussianBlur stdDeviation="2"/>
<feComposite in2="hardAlpha" operator="out"/>
<feColorMatrix type="matrix" values="0 0 0 0 0 0 0 0 0 0 0 0 0 0 0 0 0 0 0.25 0"/>
<feBlend mode="normal" in2="BackgroundImageFix" result="effect1_dropShadow_1_273"/>
<feBlend mode="normal" in="SourceGraphic" in2="effect1_dropShadow_1_273" result="shape"/>
</filter>
<clipPath id="clip0_1_273">
<rect width="86.41" height="86.99" fill="white" transform="translate(4)"/>
</clipPath>
</defs>
</svg>
