<svg width="31" height="31" viewBox="0 0 31 31" fill="none" xmlns="http://www.w3.org/2000/svg">
<g clip-path="url(#clip0_1_198)">
<path d="M13.3279 19.0024L19.6519 15.848L13.3279 12.6785V19.0024Z" fill="#5E5E5E"/>
<path d="M15.8635 0.754883C7.53219 0.754883 0.770569 7.5165 0.770569 15.8478C0.770569 24.1791 7.53219 30.9407 15.8635 30.9407C24.1947 30.9407 30.9564 24.1791 30.9564 15.8478C30.9564 7.5165 24.1947 0.754883 15.8635 0.754883ZM25.3418 18.3683C25.3418 20.4511 23.6363 22.1566 21.5535 22.1566H10.1734C8.09062 22.1566 6.38513 20.4511 6.38513 18.3683V13.3122C6.38513 11.2293 8.09062 9.52385 10.1734 9.52385H21.5535C23.6363 9.52385 25.3418 11.2293 25.3418 13.3122V18.3683Z" fill="#5E5E5E"/>
</g>
<defs>
<clipPath id="clip0_1_198">
<rect width="30.1858" height="30.1707" fill="white" transform="translate(0.770569 0.754883)"/>
</clipPath>
</defs>
</svg>
