<svg width="31" height="31" viewBox="0 0 31 31" fill="none" xmlns="http://www.w3.org/2000/svg">
<g clip-path="url(#clip0_1_204)">
<path fill-rule="evenodd" clip-rule="evenodd" d="M15.6099 0.0012207C23.9272 0.0012207 30.6787 6.75273 30.6787 15.07C30.6787 23.3872 23.9272 30.1387 15.6099 30.1387C7.2927 30.1387 0.541199 23.3872 0.541199 15.07C0.541199 6.75273 7.2927 0.0012207 15.6099 0.0012207ZM15.6099 5.652C13.0494 5.652 12.7316 5.66377 11.725 5.71086C10.7244 5.75795 10.0357 5.91688 9.44118 6.14644C8.82312 6.38778 8.29925 6.71152 7.77537 7.2354C7.2515 7.75927 6.92776 8.28314 6.68642 8.9012C6.45097 9.50159 6.29205 10.1844 6.25084 11.1851C6.20375 12.1916 6.19198 12.5095 6.19198 15.07C6.19198 17.6305 6.20375 17.9483 6.25084 18.9549C6.29793 19.9555 6.45686 20.6442 6.68642 21.2387C6.92776 21.8568 7.2515 22.3807 7.77537 22.9045C8.29925 23.4284 8.82312 23.7522 9.44118 23.9935C10.0416 24.2289 10.7244 24.3879 11.725 24.4291C12.7316 24.4762 13.0494 24.4879 15.6099 24.4879C18.1705 24.4879 18.4883 24.4762 19.4949 24.4291C20.4955 24.382 21.1842 24.2231 21.7787 23.9935C22.3968 23.7522 22.9206 23.4284 23.4445 22.9045C23.9684 22.3807 24.2921 21.8568 24.5335 21.2387C24.7689 20.6383 24.9278 19.9555 24.9691 18.9549C25.0161 17.9483 25.0279 17.6305 25.0279 15.07C25.0279 12.5095 25.0161 12.1916 24.9691 11.1851C24.922 10.1844 24.763 9.49571 24.5335 8.9012C24.2921 8.28314 23.9684 7.75927 23.4445 7.2354C22.9206 6.71152 22.3968 6.38778 21.7787 6.14644C21.1783 5.911 20.4955 5.75207 19.4949 5.71086C18.4883 5.66377 18.1646 5.652 15.6099 5.652ZM15.6099 7.34723C18.1234 7.34723 18.4236 7.35901 19.4183 7.40021C20.3366 7.44141 20.8369 7.59446 21.1665 7.72395C21.608 7.89465 21.92 8.10067 22.2496 8.4303C22.5792 8.75993 22.7853 9.0719 22.956 9.51337C23.0855 9.843 23.2385 10.3433 23.2797 11.2616C23.3268 12.2564 23.3327 12.5507 23.3327 15.07C23.3327 17.5893 23.3209 17.8836 23.2797 18.8784C23.2385 19.7966 23.0855 20.2969 22.956 20.6266C22.7853 21.068 22.5792 21.38 22.2496 21.7096C21.92 22.0393 21.608 22.2453 21.1665 22.416C20.8369 22.5455 20.3366 22.6985 19.4183 22.7397C18.4236 22.7868 18.1293 22.7927 15.6099 22.7927C13.0906 22.7927 12.7963 22.7809 11.8016 22.7397C10.8833 22.6985 10.383 22.5455 10.0533 22.416C9.61188 22.2453 9.29991 22.0393 8.97028 21.7096C8.64065 21.38 8.43463 21.068 8.26393 20.6266C8.13443 20.2969 7.98139 19.7966 7.94019 18.8784C7.8931 17.8836 7.88721 17.5893 7.88721 15.07C7.88721 12.5507 7.89898 12.2564 7.94019 11.2616C7.98139 10.3433 8.13443 9.843 8.26393 9.51337C8.43463 9.0719 8.64065 8.75993 8.97028 8.4303C9.29991 8.10067 9.61188 7.89465 10.0533 7.72395C10.383 7.59446 10.8833 7.44141 11.8016 7.40021C12.7963 7.35901 13.0965 7.34723 15.6099 7.34723ZM15.6099 10.2315C12.9376 10.2315 10.7715 12.3976 10.7715 15.07C10.7715 17.7423 12.9376 19.9084 15.6099 19.9084C18.2823 19.9084 20.4484 17.7423 20.4484 15.07C20.4484 12.3976 18.2823 10.2315 15.6099 10.2315ZM15.6099 18.2073C13.8735 18.2073 12.4726 16.8005 12.4726 15.07C12.4726 13.3335 13.8794 11.9326 15.6099 11.9326C17.3405 11.9326 18.7473 13.3394 18.7473 15.07C18.7473 16.8005 17.3405 18.2073 15.6099 18.2073ZM21.7669 10.0431C21.7669 10.6671 21.2607 11.1733 20.6368 11.1733C20.0128 11.1733 19.5066 10.6671 19.5066 10.0431C19.5066 9.41919 20.0128 8.91297 20.6368 8.91297C21.2607 8.91297 21.7669 9.41919 21.7669 10.0431Z" fill="#5E5E5E"/>
</g>
<defs>
<clipPath id="clip0_1_204">
<rect width="30.1405" height="30.1405" fill="white" transform="translate(0.539856)"/>
</clipPath>
</defs>
</svg>
